<?xml version="1.0" encoding="utf-8"?>
<!-- Generator: Adobe Illustrator 25.0.1, SVG Export Plug-In . SVG Version: 6.00 Build 0)  -->
<svg version="1.1" id="Layer_1" xmlns="http://www.w3.org/2000/svg" xmlns:xlink="http://www.w3.org/1999/xlink" x="0px" y="0px"
	 viewBox="0 0 512 128" style="enable-background:new 0 0 512 128;" xml:space="preserve">
<style type="text/css">
	.st0{fill:#EE7B22;}
	.st1{fill:#272626;}
</style>
<g>
	<path class="st0" d="M186.4,15.9h12.4v64.5c0,25.6-12.6,33.5-29.2,33.5c-4.6,0-10.2-1-13.3-2.3l1.9-10.2c2.6,1,6.3,1.9,10.4,1.9
		c11.2,0,17.7-5,17.7-23.9V15.9L186.4,15.9z"/>
	<path class="st0" d="M210.7,97.2c5.6,3.4,13.7,6.3,22.3,6.3c12.7,0,20.2-6.7,20.2-16.5c0-9-5.2-14.2-18.2-19.2
		c-15.7-5.6-25.5-13.7-25.5-27.3c0-15,12.4-26.2,31.2-26.2c9.9,0,17,2.3,21.3,4.7l-3.4,10.2c-3.1-1.7-9.6-4.6-18.3-4.6
		c-13.2,0-18.2,7.9-18.2,14.5c0,9,5.9,13.5,19.2,18.6C257.7,64,266,71.9,266,86.1c0,14.9-11,27.8-33.8,27.8
		c-9.3,0-19.5-2.7-24.6-6.2L210.7,97.2z"/>
	<path class="st1" d="M288.2,15.9v96.4h-12.4V15.9H288.2z"/>
	<path class="st1" d="M301.1,97.2c5.6,3.4,13.7,6.3,22.3,6.3c12.7,0,20.2-6.7,20.2-16.5c0-9-5.2-14.2-18.2-19.2
		C309.7,62.3,300,54.2,300,40.6c0-15,12.4-26.2,31.2-26.2c9.9,0,17,2.3,21.3,4.7L349,29.3c-3.1-1.7-9.6-4.6-18.3-4.6
		c-13.2,0-18.2,7.9-18.2,14.5c0,9,5.9,13.5,19.2,18.6c16.3,6.3,24.6,14.2,24.6,28.3c0,14.9-11,27.8-33.8,27.8
		c-9.3,0-19.5-2.7-24.6-6.2L301.1,97.2z"/>
</g>
</svg>
