<?xml version="1.0" encoding="utf-8"?>
<!-- Generator: Adobe Illustrator 25.0.1, SVG Export Plug-In . SVG Version: 6.00 Build 0)  -->
<svg version="1.1" id="Layer_1" xmlns="http://www.w3.org/2000/svg" xmlns:xlink="http://www.w3.org/1999/xlink" x="0px" y="0px"
	 viewBox="0 0 512 512" style="enable-background:new 0 0 512 512;" xml:space="preserve">
<style type="text/css">
	.st0{fill:#EF7B22;}
	.st1{fill:#262626;}
</style>
<g>
	<path class="st0" d="M103.5,154.8h26.1v135.3c0,53.7-26.4,70.2-61.2,70.2c-9.6,0-21.3-2.1-27.9-4.8l3.9-21.3
		c5.4,2.1,13.2,3.9,21.9,3.9c23.4,0,37.2-10.5,37.2-50.1V154.8z"/>
	<path class="st0" d="M154.5,325.2c11.7,7.2,28.8,13.2,46.8,13.2c26.7,0,42.3-14.1,42.3-34.5c0-18.9-10.8-29.7-38.1-40.2
		c-33-11.7-53.4-28.8-53.4-57.3c0-31.5,26.1-54.9,65.4-54.9c20.7,0,35.7,4.8,44.7,9.9l-7.2,21.3c-6.6-3.6-20.1-9.6-38.4-9.6
		c-27.6,0-38.1,16.5-38.1,30.3c0,18.9,12.3,28.2,40.2,39c34.2,13.2,51.6,29.7,51.6,59.4c0,31.2-23.1,58.2-70.8,58.2
		c-19.5,0-40.8-5.7-51.6-12.9L154.5,325.2z"/>
	<path class="st1" d="M317,154.8V357h-26.1V154.8H317z"/>
	<path class="st1" d="M344,325.2c11.7,7.2,28.8,13.2,46.8,13.2c26.7,0,42.3-14.1,42.3-34.5c0-18.9-10.8-29.7-38.1-40.2
		c-33-11.7-53.4-28.8-53.4-57.3c0-31.5,26.1-54.9,65.4-54.9c20.7,0,35.7,4.8,44.7,9.9l-7.2,21.3c-6.6-3.6-20.1-9.6-38.4-9.6
		c-27.6,0-38.1,16.5-38.1,30.3c0,18.9,12.3,28.2,40.2,39c34.2,13.2,51.6,29.7,51.6,59.4c0,31.2-23.1,58.2-70.8,58.2
		c-19.5,0-40.8-5.7-51.6-12.9L344,325.2z"/>
</g>
</svg>
